<svg xmlns="http://www.w3.org/2000/svg" xmlns:cc="http://web.resource.org/cc/" xmlns:svg="http://www.w3.org/2000/svg" id="svg2299" width="252" height="346" version="1.0"><metadata id="metadata2400"/><g id="graph0" class="graph" transform="matrix(1.33333,0,0,1.33333,5.33332,341.33248)"><title id="title2302">g</title><polygon style="fill:#fff;stroke:#fff" id="polygon2304" points="-4 4 -4 -256 198 -256 198 4 -4 4"/><g id="node1" class="node"><title id="title2307">a</title><ellipse style="fill:none;stroke:#000" id="ellipse2309" cx="109" cy="-234" rx="27" ry="18"/><text x="109" y="-229" style="font-size:14.17500019px;text-anchor:middle;font-family:Nimbus Roman No9 L" id="text2311">a</text></g><g id="node3" class="node"><title id="title2314">b</title><ellipse style="fill:none;stroke:#000" id="ellipse2316" cx="27" cy="-162" rx="27" ry="18"/><text x="27" y="-157" style="font-size:14.17500019px;text-anchor:middle;font-family:Nimbus Roman No9 L" id="text2318">b</text></g><g id="edge2" class="edge"><title id="title2321">a-&gt;b</title><path style="fill:none;stroke:#000" id="path2323" d="M 92,-219 C 80,-209 64,-195 51,-183"/><polygon style="fill:#000;stroke:#000" id="polygon2325" points="52.831 -179.951 43 -176 48.221 -185.219 52.831 -179.951"/></g><g id="node5" class="node"><title id="title2328">c</title><ellipse style="fill:none;stroke:#000" id="ellipse2330" cx="137" cy="-162" rx="27" ry="18"/><text x="137" y="-157" style="font-size:14.17500019px;text-anchor:middle;font-family:Nimbus Roman No9 L" id="text2332">c</text></g><g id="edge4" class="edge"><title id="title2335">a-&gt;c</title><path style="fill:none;stroke:#000" id="path2337" d="M 116,-217 C 119,-208 123,-198 127,-189"/><polygon style="fill:#000;stroke:#000" id="polygon2339" points="130.479 -189.584 130 -179 123.774 -187.573 130.479 -189.584"/></g><g id="node7" class="node"><title id="title2342">d</title><ellipse style="fill:none;stroke:#000" id="ellipse2344" cx="82" cy="-90" rx="27" ry="18"/><text x="82" y="-85" style="font-size:14.17500019px;text-anchor:middle;font-family:Nimbus Roman No9 L" id="text2346">d</text></g><g id="edge6" class="edge"><title id="title2349">a-&gt;d</title><path style="fill:none;stroke:#000" id="path2351" d="M 106,-216 C 101,-191 92,-147 87,-118"/><polygon style="fill:#000;stroke:#000" id="polygon2353" points="90.393 -117.119 85 -108 83.529 -118.492 90.393 -117.119"/></g><g id="node9" class="node"><title id="title2356">e</title><ellipse style="fill:none;stroke:#000" id="ellipse2358" cx="137" cy="-18" rx="27" ry="18"/><text x="137" y="-13" style="font-size:14.17500019px;text-anchor:middle;font-family:Nimbus Roman No9 L" id="text2360">e</text></g><g id="edge8" class="edge"><title id="title2363">a-&gt;e</title><path style="fill:none;stroke:#000" id="path2365" d="M 130,-222 C 145,-213 164,-198 173,-180 C 194,-134 170,-77 153,-44"/><polygon style="fill:#000;stroke:#000" id="polygon2367" points="155.916 -42.042 148 -35 149.797 -45.441 155.916 -42.042"/></g><g id="edge10" class="edge"><title id="title2370">b-&gt;d</title><path style="fill:none;stroke:#000" id="path2372" d="M 39,-146 C 46,-137 56,-125 64,-114"/><polygon style="fill:#000;stroke:#000" id="polygon2374" points="66.8 -116.1 70 -106 61.2 -111.9 66.8 -116.1"/></g><g id="edge12" class="edge"><title id="title2377">c-&gt;d</title><path style="fill:none;stroke:#000" id="path2379" d="M 125,-146 C 118,-137 108,-125 100,-114"/><polygon style="fill:#000;stroke:#000" id="polygon2381" points="102.8 -111.9 94 -106 97.2 -116.1 102.8 -111.9"/></g><g id="edge14" class="edge"><title id="title2384">c-&gt;e</title><path style="fill:none;stroke:#000" id="path2386" d="M 137,-144 C 137,-119 137,-75 137,-46"/><polygon style="fill:#000;stroke:#000" id="polygon2388" points="140.5 -46 137 -36 133.5 -46 140.5 -46"/></g><g id="edge16" class="edge"><title id="title2391">d-&gt;e</title><path style="fill:none;stroke:#000" id="path2393" d="M 94,-74 C 101,-65 111,-53 119,-42"/><polygon style="fill:#000;stroke:#000" id="polygon2395" points="121.8 -44.1 125 -34 116.2 -39.9 121.8 -44.1"/></g></g></svg>